<?xml version="1.0" standalone="no"?><!DOCTYPE svg PUBLIC "-//W3C//DTD SVG 1.1//EN" "http://www.w3.org/Graphics/SVG/1.1/DTD/svg11.dtd"><svg t="1698212996302" class="icon" viewBox="0 0 1024 1024" version="1.1" xmlns="http://www.w3.org/2000/svg" p-id="11389" xmlns:xlink="http://www.w3.org/1999/xlink" width="32" height="32"><path d="M170.112 171.2h42.688v42.688h-42.688zM213.312 170.688H256v42.688h-42.688zM256 170.688h42.688v42.688H256zM298.688 170.688h42.688v42.688h-42.688z" fill="#FFFFFF" p-id="11390"></path><path d="M341.312 170.688H384v42.688h-42.688zM384 170.688h42.688v42.688H384zM426.688 170.688h42.688v42.688h-42.688z" fill="#FFFFFF" p-id="11391"></path><path d="M469.312 170.688H512v42.688h-42.688zM127.488 213.888h42.688v42.688h-42.688zM170.688 213.312h42.688V256h-42.688z" fill="#FFFFFF" p-id="11392"></path><path d="M213.312 213.312H256V256h-42.688zM256 213.312h42.688V256H256zM298.688 213.312h42.688V256h-42.688z" fill="#FFFFFF" p-id="11393"></path><path d="M341.312 213.312H384V256h-42.688zM84.8 256.512h42.688v42.688h-42.688zM128 256h42.688v42.688H128zM170.688 256h42.688v42.688h-42.688z" fill="#FFFFFF" p-id="11394"></path><path d="M213.312 256H256v42.688h-42.688zM256 256h42.688v42.688H256zM298.688 256h42.688v42.688h-42.688zM85.312 298.688H128v42.688h-42.688zM128 298.688h42.688v42.688H128zM170.688 298.688h42.688v42.688h-42.688z" fill="#FFFFFF" p-id="11395"></path><path d="M213.312 298.688H256v42.688h-42.688zM256 298.688h42.688v42.688H256zM512 170.688h42.688v42.688H512zM554.688 170.688h42.688v42.688h-42.688z" fill="#FFFFFF" p-id="11396"></path><path d="M597.312 170.688H640v42.624h-42.688zM640 213.312h42.688V256H640zM682.688 213.312h42.624V256h-42.624zM640 170.688h42.688v42.624H640zM682.688 170.688h42.688v42.624h-42.688z" fill="#FFFFFF" p-id="11397"></path><path d="M725.312 170.688H768v42.624h-42.688zM298.112 43.2h42.688v42.688h-42.688zM340.8 43.2h42.688v42.688h-42.688zM384 42.688h42.688v42.688H384zM426.688 42.688h42.688v42.688h-42.688z" fill="#FFFFFF" p-id="11398"></path><path d="M469.312 42.688H512v42.688h-42.688zM255.488 85.888h42.688v42.688h-42.688zM298.688 85.312h42.688V128h-42.688z" fill="#FFFFFF" p-id="11399"></path><path d="M341.312 85.312H384V128h-42.688zM384 85.312h42.688V128H384zM426.688 85.312h42.688V128h-42.688z" fill="#FFFFFF" p-id="11400"></path><path d="M469.312 85.312H512V128h-42.688zM512 42.688h42.688v42.688H512z" fill="#FFFFFF" p-id="11401"></path><path d="M512 85.312h42.688V128H512zM554.688 42.688h42.688v42.688h-42.688z" fill="#FFFFFF" p-id="11402"></path><path d="M554.688 85.312h42.688V128h-42.688z" fill="#FFFFFF" p-id="11403"></path><path d="M597.312 42.688H640v42.688h-42.688z" fill="#FFFFFF" p-id="11404"></path><path d="M597.312 85.312H640V128h-42.688zM640 42.688h42.688v42.688H640z" fill="#FFFFFF" p-id="11405"></path><path d="M640 85.312h42.688V128H640zM682.688 42.688h42.688v42.688h-42.688z" fill="#FFFFFF" p-id="11406"></path><path d="M682.688 85.312h42.688V128h-42.688z" fill="#FFFFFF" p-id="11407"></path><path d="M725.312 85.312H768V128h-42.688zM725.312 256H768v42.688h-42.688zM725.312 298.688H768v42.688h-42.688zM768 213.312h42.688V256H768zM768 256h42.688v42.688H768zM768 298.688h42.688v42.688H768zM810.688 170.688h42.688v42.688h-42.688z" fill="#FFFFFF" p-id="11408"></path><path d="M810.688 213.312h42.688V256h-42.688zM810.688 256h42.688v42.688h-42.688zM810.688 298.688h42.688v42.688h-42.688z" fill="#FFFFFF" p-id="11409"></path><path d="M853.312 213.312H896V256h-42.688zM853.312 256H896v42.688h-42.688zM853.312 298.688H896v42.688h-42.688zM896 256h42.688v42.688H896zM896 298.688h42.688v42.688H896zM768 640h42.688v42.688H768zM725.312 682.688H768v42.688h-42.688zM768 682.688h42.688v42.688H768z" fill="#FFFFFF" p-id="11410"></path><path d="M682.688 725.312h42.688V768h-42.688z" fill="#FFFFFF" p-id="11411"></path><path d="M725.312 725.312H768V768h-42.688zM725.312 768H768v42.688h-42.688zM768 725.312h42.688V768H768zM768 768h42.688v42.688H768zM768 810.688h42.688v42.688H768zM810.688 384h42.688v42.688h-42.688zM810.688 426.688h42.688v42.688h-42.688z" fill="#FFFFFF" p-id="11412"></path><path d="M810.688 469.312h42.688V512h-42.688zM810.688 512h42.688v42.688h-42.688zM810.688 554.688h42.688v42.688h-42.688z" fill="#FFFFFF" p-id="11413"></path><path d="M810.688 597.312h42.688V640h-42.688zM810.688 640h42.688v42.688h-42.688zM810.688 682.688h42.688v42.688h-42.688z" fill="#FFFFFF" p-id="11414"></path><path d="M810.688 725.312h42.688V768h-42.688zM810.688 768h42.688v42.688h-42.688zM810.688 810.688h42.688v42.688h-42.688zM853.312 384H896v42.688h-42.688zM853.312 426.688H896v42.688h-42.688z" fill="#FFFFFF" p-id="11415"></path><path d="M853.312 469.312H896V512h-42.688zM896 384h42.688v42.688H896zM896 426.688h42.688v42.688H896z" fill="#FFFFFF" p-id="11416"></path><path d="M896 469.312h42.688V512H896zM853.312 512H896v42.688h-42.688zM896 512h42.688v42.688H896zM938.688 384h42.688v42.688h-42.688zM938.688 426.688h42.688v42.688h-42.688z" fill="#FFFFFF" p-id="11417"></path><path d="M938.688 469.312h42.688V512h-42.688zM938.688 512h42.688v42.688h-42.688zM853.312 554.688H896v42.688h-42.688z" fill="#FFFFFF" p-id="11418"></path><path d="M853.312 597.312H896V640h-42.688zM896 554.688h42.688v42.688H896z" fill="#FFFFFF" p-id="11419"></path><path d="M896 597.312h42.688V640H896zM853.312 640H896v42.688h-42.688zM896 640h42.688v42.688H896zM938.688 554.688h42.688v42.688h-42.688z" fill="#FFFFFF" p-id="11420"></path><path d="M938.688 597.312h42.688V640h-42.688z" fill="#FFFFFF" p-id="11421"></path><path d="M938.688 640h42.688v42.688h-42.688z" fill="#E6E6E6" p-id="11422"></path><path d="M853.312 682.688H896v42.688h-42.688z" fill="#FFFFFF" p-id="11423"></path><path d="M896 682.688h42.688v42.688H896z" fill="#E6E6E6" p-id="11424"></path><path d="M853.312 725.312H896V768h-42.688z" fill="#FFFFFF" p-id="11425"></path><path d="M853.312 768H896v42.688h-42.688zM896 725.312h42.688V768H896z" fill="#E6E6E6" p-id="11426"></path><path d="M42.688 384h42.688v42.688H42.688z" fill="#FFFFFF" p-id="11427"></path><path d="M85.312 384H128v42.688h-42.688zM128 384h42.688v42.688H128zM170.688 384h42.688v42.688h-42.688zM42.688 426.688h42.688v42.688H42.688z" fill="#FFFFFF" p-id="11428"></path><path d="M85.312 426.688H128v42.688h-42.688zM128 426.688h42.688v42.688H128zM170.688 426.688h42.688v42.688h-42.688z" fill="#FFFFFF" p-id="11429"></path><path d="M42.688 469.312h42.688V512H42.688zM42.688 512h42.688v42.688H42.688zM42.688 554.688h42.688v42.688H42.688zM128 554.688h42.688v42.688H128z" fill="#FFFFFF" p-id="11430"></path><path d="M42.688 597.312h42.688V640H42.688zM128 597.312h42.688V640H128z" fill="#FFFFFF" p-id="11431"></path><path d="M42.688 640h42.688v42.688H42.688z" fill="#E6E6E6" p-id="11432"></path><path d="M85.312 640H128v42.688h-42.688zM128 640h42.688v42.688H128zM170.688 640h42.688v42.688h-42.688z" fill="#FFFFFF" p-id="11433"></path><path d="M213.312 640H256v42.688h-42.688z" fill="#FFFFFF" p-id="11434"></path><path d="M85.312 682.688H128v42.688h-42.688z" fill="#E6E6E6" p-id="11435"></path><path d="M128 682.688h42.688v42.688H128zM170.688 682.688h42.688v42.688h-42.688z" fill="#FFFFFF" p-id="11436"></path><path d="M213.312 682.688H256v42.688h-42.688zM256 682.688h42.688v42.688H256z" fill="#FFFFFF" p-id="11437"></path><path d="M85.312 725.312H128V768h-42.688z" fill="#E6E6E6" p-id="11438"></path><path d="M128 725.312h42.688V768H128zM170.688 725.312h42.688V768h-42.688z" fill="#FFFFFF" p-id="11439"></path><path d="M128 768h42.688v42.688H128z" fill="#E6E6E6" p-id="11440"></path><path d="M426.688 810.688h42.688v42.688h-42.688z" fill="#FFFFFF" p-id="11441"></path><path d="M469.312 810.688H512v42.688h-42.688zM213.312 768H256v42.688h-42.688zM256 768h42.688v42.688H256zM298.688 768h42.688v42.688h-42.688zM170.688 810.688h42.688v42.688h-42.688z" fill="#FFFFFF" p-id="11442"></path><path d="M213.312 810.688H256v42.688h-42.688zM256 810.688h42.688v42.688H256zM298.688 810.688h42.688v42.688h-42.688z" fill="#FFFFFF" p-id="11443"></path><path d="M341.312 810.688H384v42.688h-42.688zM554.688 810.688h42.688v42.688h-42.688z" fill="#FFFFFF" p-id="11444"></path><path d="M597.312 810.688H640v42.688h-42.688z" fill="#FFFFFF" p-id="11445"></path><path d="M170.688 853.312h42.688V896h-42.688z" fill="#E6E6E6" p-id="11446"></path><path d="M213.312 853.312H256V896h-42.688z" fill="#E6E6E6" p-id="11447"></path><path d="M256 853.312h42.688V896H256zM298.688 853.312h42.688V896h-42.688z" fill="#FFFFFF" p-id="11448"></path><path d="M341.312 853.312H384V896h-42.688zM384 853.312h42.688V896H384zM512 853.312h42.688V896H512zM554.688 853.312h42.688V896h-42.688z" fill="#FFFFFF" p-id="11449"></path><path d="M597.312 853.312H640V896h-42.688z" fill="#FFFFFF" p-id="11450"></path><path d="M256 896h42.688v42.688H256z" fill="#E6E6E6" p-id="11451"></path><path d="M298.688 896h42.688v42.688h-42.688z" fill="#FFFFFF" p-id="11452"></path><path d="M341.312 896H384v42.688h-42.688zM384 896h42.688v42.688H384zM426.688 896h42.688v42.688h-42.688z" fill="#FFFFFF" p-id="11453"></path><path d="M469.312 896H512v42.688h-42.688z" fill="#FFFFFF" p-id="11454"></path><path d="M298.688 938.688h42.688v42.688h-42.688z" fill="#E6E6E6" p-id="11455"></path><path d="M341.312 938.688H384v42.688h-42.688zM384 938.688h42.688v42.688H384zM426.688 938.688h42.688v42.688h-42.688z" fill="#E6E6E6" p-id="11456"></path><path d="M469.312 938.688H512v42.688h-42.688z" fill="#E6E6E6" p-id="11457"></path><path d="M512 896h42.688v42.688H512z" fill="#FFFFFF" p-id="11458"></path><path d="M512 938.688h42.688v42.688H512z" fill="#E6E6E6" p-id="11459"></path><path d="M554.688 896h42.688v42.688h-42.688z" fill="#FFFFFF" p-id="11460"></path><path d="M554.688 938.688h42.688v42.688h-42.688z" fill="#E6E6E6" p-id="11461"></path><path d="M597.312 896H640v42.688h-42.688z" fill="#FFFFFF" p-id="11462"></path><path d="M597.312 938.688H640v42.688h-42.688z" fill="#E6E6E6" p-id="11463"></path><path d="M682.688 853.312h42.688V896h-42.688zM682.688 896h42.688v42.688h-42.688z" fill="#FFFFFF" p-id="11464"></path><path d="M682.688 938.688h42.688v42.688h-42.688z" fill="#E6E6E6" p-id="11465"></path><path d="M682.688 810.688h42.688v42.688h-42.688z" fill="#FFFFFF" p-id="11466"></path><path d="M725.312 853.312H768V896h-42.688z" fill="#FFFFFF" p-id="11467"></path><path d="M725.312 896H768v42.688h-42.688z" fill="#E6E6E6" p-id="11468"></path><path d="M512 810.688h42.688v42.688H512zM682.688 768h42.688v42.688h-42.688zM725.312 810.688H768v42.688h-42.688z" fill="#FFFFFF" p-id="11469"></path><path d="M853.312 810.688H896v42.688h-42.688z" fill="#E6E6E6" p-id="11470"></path><path d="M426.688 853.312h42.688V896h-42.688z" fill="#FFFFFF" p-id="11471"></path><path d="M469.312 853.312H512V896h-42.688z" fill="#FFFFFF" p-id="11472"></path><path d="M768 853.312h42.688V896H768zM810.688 853.312h42.688V896h-42.688z" fill="#E6E6E6" p-id="11473"></path><path d="M170.112 128.512h42.688v42.688h-42.688zM213.312 128H256v42.688h-42.688zM256 128h42.688v42.688H256zM298.688 128h42.688v42.688h-42.688z" fill="#FFFFFF" p-id="11474"></path><path d="M341.312 128H384v42.688h-42.688zM384 128h42.688v42.688H384zM426.688 128h42.688v42.688h-42.688z" fill="#FFFFFF" p-id="11475"></path><path d="M469.312 128H512v42.688h-42.688zM128 170.688h42.688v42.688H128zM42.688 341.312h42.688V384H42.688z" fill="#FFFFFF" p-id="11476"></path><path d="M85.312 341.312H128V384h-42.688zM128 341.312h42.688V384H128zM170.688 341.312h42.688V384h-42.688z" fill="#FFFFFF" p-id="11477"></path><path d="M213.312 341.312H256V384h-42.688zM512 128h42.688v42.688H512zM554.688 128h42.688v42.688h-42.688z" fill="#FFFFFF" p-id="11478"></path><path d="M597.312 128H640v42.688h-42.688zM640 128h42.688v42.688H640zM682.688 128h42.688v42.688h-42.688zM682.688 256h42.688v42.688h-42.688z" fill="#FFFFFF" p-id="11479"></path><path d="M725.312 128H768v42.688h-42.688zM725.312 213.312H768V256h-42.688zM768 128h42.688v42.688H768zM768 170.688h42.688v42.688H768zM768 341.312h42.688V384H768zM640 768h42.688v42.688H640zM640 810.688h42.688v42.688H640zM810.688 128h42.688v42.688h-42.688zM810.688 341.312h42.688V384h-42.688zM853.312 170.688H896v42.688h-42.688z" fill="#FFFFFF" p-id="11480"></path><path d="M853.312 341.312H896V384h-42.688zM896 341.312h42.688V384H896zM938.688 341.312h42.688V384h-42.688zM640 853.312h42.688V896H640zM640 896h42.688v42.688H640z" fill="#FFFFFF" p-id="11481"></path><path d="M640 938.688h42.688v42.688H640z" fill="#E6E6E6" p-id="11482"></path><path d="M85.312 469.312H128V512h-42.688zM128 469.312h42.688V512H128zM170.688 469.312h42.688V512h-42.688zM85.312 512H128v42.688h-42.688zM128 512h42.688v42.688H128zM170.688 512h42.688v42.688h-42.688zM85.312 554.688H128v42.688h-42.688zM170.688 554.688h42.688v42.688h-42.688z" fill="#FFFFFF" p-id="11483"></path><path d="M85.312 597.312H128V640h-42.688zM170.688 597.312h42.688V640h-42.688zM213.312 725.312H256V768h-42.688zM256 725.312h42.688V768H256zM298.688 725.312h42.688V768h-42.688zM170.688 768h42.688v42.688h-42.688zM341.312 768H384v42.688h-42.688z" fill="#FFFFFF" p-id="11484"></path><path d="M128 810.688h42.688v42.688H128z" fill="#E6E6E6" p-id="11485"></path><path d="M384 810.688h42.688v42.688H384z" fill="#FFFFFF" p-id="11486"></path><path d="M384 256h42.688v42.688H384zM426.688 256h42.688v42.688h-42.688z" fill="#FFE37C" p-id="11487"></path><path d="M469.312 256H512v42.688h-42.688zM341.312 298.688H384v42.688h-42.688zM384 298.688h42.688v42.688H384zM426.688 298.688h42.688v42.688h-42.688z" fill="#FFE37C" p-id="11488"></path><path d="M469.312 298.688H512v42.688h-42.688zM512 256h42.688v42.688H512z" fill="#FFE37C" p-id="11489"></path><path d="M512 298.688h42.688v42.688H512z" fill="#FFFFFF" p-id="11490"></path><path d="M554.688 256h42.688v42.688h-42.688z" fill="#FFE37C" p-id="11491"></path><path d="M554.688 298.688h42.688v42.688h-42.688z" fill="#FFFFFF" p-id="11492"></path><path d="M597.312 256H640v42.688h-42.688z" fill="#FFE37C" p-id="11493"></path><path d="M597.312 298.688H640v42.688h-42.688zM682.688 384h42.688v42.688h-42.688z" fill="#FFFFFF" p-id="11494"></path><path d="M682.688 426.688h42.688v42.688h-42.688z" fill="#FFE37C" p-id="11495"></path><path d="M682.688 469.312h42.688V512h-42.688zM725.312 384H768v42.688h-42.688z" fill="#FFE37C" p-id="11496"></path><path d="M725.312 426.688H768v42.688h-42.688z" fill="#FFE37C" p-id="11497"></path><path d="M725.312 469.312H768V512h-42.688zM682.688 512h42.688v42.688h-42.688z" fill="#FFE37C" p-id="11498"></path><path d="M725.312 512H768v42.688h-42.688zM682.688 554.688h42.688v42.688h-42.688z" fill="#FFE37C" p-id="11499"></path><path d="M682.688 597.312h42.688V640h-42.688z" fill="#FFE37C" p-id="11500"></path><path d="M725.312 554.688H768v42.688h-42.688z" fill="#FFE37C" p-id="11501"></path><path d="M725.312 597.312H768V640h-42.688zM682.688 640h42.688v42.688h-42.688z" fill="#F7AF00" p-id="11502"></path><path d="M256 384h42.688v42.688H256zM298.688 384h42.688v42.688h-42.688z" fill="#FFE37C" p-id="11503"></path><path d="M341.312 384H384v42.688h-42.688zM384 384h42.688v42.688H384zM426.688 384h42.688v42.688h-42.688z" fill="#FFE37C" p-id="11504"></path><path d="M469.312 384H512v42.688h-42.688zM256 426.688h42.688v42.688H256zM298.688 426.688h42.688v42.688h-42.688z" fill="#FFE37C" p-id="11505"></path><path d="M341.312 426.688H384v42.688h-42.688zM384 426.688h42.688v42.688H384zM426.688 426.688h42.688v42.688h-42.688z" fill="#FFE37C" p-id="11506"></path><path d="M469.312 426.688H512v42.688h-42.688zM298.688 469.312h42.688V512h-42.688zM384 469.312h42.688V512H384z" fill="#FFE37C" p-id="11507"></path><path d="M426.688 469.312h42.688V512h-42.688zM512 384h42.688v42.688H512zM512 426.688h42.688v42.688H512z" fill="#FFE37C" p-id="11508"></path><path d="M512 469.312h42.688V512H512zM298.688 512h42.688v42.688h-42.688zM384 512h42.688v42.688H384zM426.688 512h42.688v42.688h-42.688zM554.688 384h42.688v42.688h-42.688zM554.688 426.688h42.688v42.688h-42.688z" fill="#FFE37C" p-id="11509"></path><path d="M597.312 384H640v42.688h-42.688zM597.312 426.688H640v42.688h-42.688z" fill="#FFE37C" p-id="11510"></path><path d="M597.312 469.312H640V512h-42.688zM554.688 512h42.688v42.688h-42.688z" fill="#FFE37C" p-id="11511"></path><path d="M597.312 512H640v42.688h-42.688zM298.688 554.688h42.688v42.688h-42.688zM384 554.688h42.688v42.688H384zM426.688 554.688h42.688v42.688h-42.688z" fill="#FFE37C" p-id="11512"></path><path d="M298.688 597.312h42.688V640h-42.688zM426.688 597.312h42.688V640h-42.688zM512 554.688h42.688v42.688H512z" fill="#FFE37C" p-id="11513"></path><path d="M512 597.312h42.688V640H512z" fill="#FFE37C" p-id="11514"></path><path d="M298.688 640h42.688v42.688h-42.688z" fill="#F7AF00" p-id="11515"></path><path d="M341.312 640H384v42.688h-42.688zM384 640h42.688v42.688H384zM426.688 640h42.688v42.688h-42.688z" fill="#FFE37C" p-id="11516"></path><path d="M469.312 640H512v42.688h-42.688zM512 640h42.688v42.688H512zM597.312 554.688H640v42.688h-42.688z" fill="#FFE37C" p-id="11517"></path><path d="M597.312 597.312H640V640h-42.688zM554.688 640h42.688v42.688h-42.688z" fill="#FFE37C" p-id="11518"></path><path d="M597.312 640H640v42.688h-42.688z" fill="#FFE37C" p-id="11519"></path><path d="M341.312 682.688H384v42.688h-42.688z" fill="#F7AF00" p-id="11520"></path><path d="M384 682.688h42.688v42.688H384zM426.688 682.688h42.688v42.688h-42.688z" fill="#FFE37C" p-id="11521"></path><path d="M469.312 682.688H512v42.688h-42.688zM512 682.688h42.688v42.688H512zM554.688 682.688h42.688v42.688h-42.688z" fill="#FFE37C" p-id="11522"></path><path d="M597.312 682.688H640v42.688h-42.688z" fill="#FFE37C" p-id="11523"></path><path d="M384 725.312h42.688V768H384zM426.688 725.312h42.688V768h-42.688z" fill="#F7AF00" p-id="11524"></path><path d="M469.312 725.312H512V768h-42.688zM512 725.312h42.688V768H512zM554.688 725.312h42.688V768h-42.688z" fill="#F7AF00" p-id="11525"></path><path d="M597.312 725.312H640V768h-42.688z" fill="#F7AF00" p-id="11526"></path><path d="M298.688 341.312h42.688V384h-42.688z" fill="#FFE37C" p-id="11527"></path><path d="M341.312 341.312H384V384h-42.688zM384 341.312h42.688V384H384zM426.688 341.312h42.688V384h-42.688z" fill="#FFE37C" p-id="11528"></path><path d="M469.312 341.312H512V384h-42.688zM512 341.312h42.688V384H512zM554.688 341.312h42.688V384h-42.688z" fill="#FFE37C" p-id="11529"></path><path d="M597.312 341.312H640V384h-42.688zM640 298.688h42.688v42.688H640z" fill="#FFE37C" p-id="11530"></path><path d="M640 341.312h42.688V384H640z" fill="#FFFFFF" p-id="11531"></path><path d="M640 384h42.688v42.688H640zM640 426.688h42.688v42.688H640z" fill="#FFE37C" p-id="11532"></path><path d="M640 469.312h42.688V512H640zM640 512h42.688v42.688H640zM640 554.688h42.688v42.688H640z" fill="#FFE37C" p-id="11533"></path><path d="M640 597.312h42.688V640H640zM640 640h42.688v42.688H640zM682.688 341.312h42.688V384h-42.688z" fill="#FFE37C" p-id="11534"></path><path d="M640 682.688h42.688v42.688H640z" fill="#F7AF00" p-id="11535"></path><path d="M256 469.312h42.688V512H256zM341.312 469.312H384V512h-42.688zM469.312 469.312H512V512h-42.688zM256 512h42.688v42.688H256zM341.312 512H384v42.688h-42.688zM469.312 512H512v42.688h-42.688zM512 512h42.688v42.688H512zM554.688 469.312h42.688V512h-42.688zM256 554.688h42.688v42.688H256zM341.312 554.688H384v42.688h-42.688zM469.312 554.688H512v42.688h-42.688z" fill="#FFE37C" p-id="11536"></path><path d="M256 597.312h42.688V640H256z" fill="#F7AF00" p-id="11537"></path><path d="M341.312 597.312H384V640h-42.688zM384 597.312h42.688V640H384zM469.312 597.312H512V640h-42.688zM554.688 554.688h42.688v42.688h-42.688z" fill="#FFE37C" p-id="11538"></path><path d="M554.688 597.312h42.688V640h-42.688z" fill="#FFE37C" p-id="11539"></path><path d="M384 213.312h42.688V256H384zM426.688 213.312h42.688V256h-42.688z" p-id="11540"></path><path d="M469.312 213.312H512V256h-42.688zM341.312 256H384v42.688h-42.688zM43.072 299.392h42.688v42.688H43.072zM298.688 298.688h42.688v42.688h-42.688zM512 213.312h42.688V256H512zM554.688 213.312h42.688V256h-42.688z" p-id="11541"></path><path d="M597.312 213.312H640V256h-42.688zM640 256h42.688v42.688H640zM256.384 43.392h42.688v42.688h-42.688zM213.184 86.592h42.688v42.688h-42.688zM725.312 42.688H768v42.688h-42.688zM768 85.312h42.688V128H768zM682.688 298.688h42.688v42.688h-42.688zM938.688 298.688h42.688v42.688h-42.688zM768 384h42.688v42.688H768zM768 426.688h42.688v42.688H768z" p-id="11542"></path><path d="M768 469.312h42.688V512H768zM768 512h42.688v42.688H768zM725.312 640H768v42.688h-42.688zM768 554.688h42.688v42.688H768z" p-id="11543"></path><path d="M768 597.312h42.688V640H768zM682.688 682.688h42.688v42.688h-42.688zM938.688 682.688h42.688v42.688h-42.688zM213.312 384H256v42.688h-42.688zM213.312 426.688H256v42.688h-42.688z" p-id="11544"></path><path d="M213.312 469.312H256V512h-42.688zM213.312 512H256v42.688h-42.688zM213.312 554.688H256v42.688h-42.688z" p-id="11545"></path><path d="M213.312 597.312H256V640h-42.688zM256 640h42.688v42.688H256zM42.688 682.688h42.688v42.688H42.688zM298.688 682.688h42.688v42.688h-42.688z" p-id="11546"></path><path d="M42.688 725.312h42.688V768H42.688zM341.312 725.312H384V768h-42.688zM85.312 768H128v42.688h-42.688zM384 768h42.688v42.688H384zM426.688 768h42.688v42.688h-42.688z" p-id="11547"></path><path d="M469.312 768H512v42.688h-42.688zM512 768h42.688v42.688H512zM597.312 768H640v42.688h-42.688zM128 853.312h42.688V896H128zM170.688 896h42.688v42.688h-42.688z" p-id="11548"></path><path d="M213.312 896H256v42.688h-42.688zM256 938.688h42.688v42.688H256zM896 810.688h42.688v42.688H896zM725.312 938.688H768v42.688h-42.688zM768 896h42.688v42.688H768zM810.688 896h42.688v42.688h-42.688zM853.312 853.312H896V896h-42.688zM554.688 768h42.688v42.688h-42.688zM896 768h42.688v42.688H896zM938.688 725.312h42.688V768h-42.688zM299.072 0.768h42.688v42.688h-42.688zM341.76 0.768h42.688v42.688H341.76z" p-id="11549"></path><path d="M383.872 1.28h42.688v42.688h-42.688zM426.56 1.28h42.688v42.688h-42.688z" p-id="11550"></path><path d="M469.184 1.28h42.688v42.688h-42.688zM171.072 86.08h42.688v42.688h-42.688zM85.76 171.392h42.688v42.688H85.76zM85.76 214.08h42.688v42.688H85.76zM43.072 256.768h42.688v42.688H43.072z" p-id="11551"></path><path d="M128.384 128.768h42.688v42.688h-42.688zM0.384 342.08h42.688v42.688H0.384zM256 341.312h42.688V384H256z" p-id="11552"></path><path d="M0.384 384.768h42.688v42.688H0.384z" p-id="11553"></path><path d="M0.384 427.392h42.688v42.688H0.384zM0.384 470.08h42.688v42.688H0.384zM511.488 0.512h42.688v42.688h-42.688z" p-id="11554"></path><path d="M0 512.32h42.688v42.688H0zM554.112 0.512h42.688v42.688h-42.688zM596.8 0.512h42.688v42.688h-42.688zM640 0h42.688v42.688H640zM0 555.008h42.688v42.688H0z" p-id="11555"></path><path d="M0 597.312h42.688V640H0zM0 640h42.688v42.688H0zM682.688 0h42.688v42.688h-42.688zM725.312 341.312H768V384h-42.688zM853.312 128H896v42.688h-42.688zM896 170.688h42.688v42.688H896zM640 725.312h42.688V768H640zM810.688 85.312h42.688V128h-42.688z" p-id="11556"></path><path d="M896 213.312h42.688V256H896zM938.688 256h42.688v42.688h-42.688zM981.312 341.312H1024V384h-42.688zM981.312 384H1024v42.688h-42.688zM981.312 426.688H1024v42.688h-42.688z" p-id="11557"></path><path d="M981.312 469.312H1024V512h-42.688zM981.312 512H1024v42.688h-42.688zM981.312 554.688H1024v42.688h-42.688z" p-id="11558"></path><path d="M981.312 597.312H1024V640h-42.688zM981.312 640H1024v42.688h-42.688zM298.688 981.312h42.688V1024h-42.688z" p-id="11559"></path><path d="M341.312 981.312H384V1024h-42.688zM384 981.312h42.688V1024H384zM426.688 981.312h42.688V1024h-42.688z" p-id="11560"></path><path d="M469.312 981.312H512V1024h-42.688zM512 981.312h42.688V1024H512zM554.688 981.312h42.688V1024h-42.688z" p-id="11561"></path><path d="M597.312 981.312H640V1024h-42.688zM640 981.312h42.688V1024H640zM682.688 981.312h42.688V1024h-42.688zM85.312 810.688H128v42.688h-42.688z" p-id="11562"></path></svg>